<svg xmlns="http://www.w3.org/2000/svg" width="116.983" height="93.267" viewBox="0 0 116.983 93.267">
  <g id="logo" transform="translate(-43 -24.761)">
    <g id="brackets" transform="translate(1 -564)">
      <g id="brackets-2" data-name="brackets" transform="translate(42 588.761)">
        <path id="Path_31" data-name="Path 31" d="M96.989,92.991a4,4,0,0,1,4-4h7.994a4,4,0,0,0,0-7.994h-7.994A12.005,12.005,0,0,0,88.994,92.991v19.7a13.928,13.928,0,0,1-6.214,11.612,4,4,0,0,0,0,6.652,13.927,13.927,0,0,1,6.214,11.612v19.7a12.005,12.005,0,0,0,11.991,11.991h7.994a4,4,0,1,0,0-7.994h-7.994a4,4,0,0,1-4-4v-19.7a21.9,21.9,0,0,0-5.862-14.938A21.9,21.9,0,0,0,96.989,112.7Z" transform="translate(-81 -81)" fill="#f05454"/>
        <path id="Path_32" data-name="Path 32" d="M341.2,124.308a13.927,13.927,0,0,1-6.214-11.612v-19.7A12.005,12.005,0,0,0,322.991,81H315a4,4,0,0,0,0,7.994h7.994a4,4,0,0,1,4,4v19.7a21.9,21.9,0,0,0,5.862,14.938,21.9,21.9,0,0,0-5.862,14.938v19.7a4,4,0,0,1-4,4H315a4,4,0,0,0,0,7.994h7.994a12.005,12.005,0,0,0,11.991-11.991v-19.7a13.928,13.928,0,0,1,6.214-11.612,4,4,0,0,0,0-6.652Z" transform="translate(-225.994 -81)" fill="#f05454"/>
      </g>
      <path id="Subtraction_1" data-name="Subtraction 1" d="M.342,7.764v0A3.007,3.007,0,0,1,0,6.372V2.1A2.98,2.98,0,0,1,.552.369,4.524,4.524,0,0,0,4.451,2.5,4.526,4.526,0,0,0,8.349.371,2.98,2.98,0,0,1,8.9,2.1V6.372a3.007,3.007,0,0,1-.34,1.389A4.46,4.46,0,0,0,4.451,5.234,4.46,4.46,0,0,0,.342,7.762Z" transform="translate(142.633 601.489)" fill="#2d3842"/>
    </g>
    <g id="logo_2" transform="translate(-163 -508.947)">
      <g id="Layer_1" data-name="Layer 1" transform="translate(246 549)">
        <path id="Path_17" data-name="Path 17" d="M35.264,7.67,36.47,3.445A1.134,1.134,0,0,0,35.38,2H27.786A1.134,1.134,0,0,0,26.7,3.445L27.9,7.67Z" transform="translate(-13.438 -2)" fill="#ddd"/>
        <path id="Path_18" data-name="Path 18" d="M32.771,38.266c3.372-1.618,6.86-3.278,15.046-2.727a18.517,18.517,0,0,0-7.109-4.6,1.2,1.2,0,0,1-.795-1.129V13a1.2,1.2,0,0,1,1.2-1.2,2.4,2.4,0,0,0,0-4.8h-.809l-.437,1.53a1.2,1.2,0,0,1-1.155.87h-9.6a1.2,1.2,0,0,1-1.155-.87L27.518,7H26.71a2.4,2.4,0,0,0,0,4.8,1.2,1.2,0,0,1,1.2,1.2V29.807a1.2,1.2,0,0,1-.794,1.13,18.521,18.521,0,0,0-10.647,9.842C25.794,41.6,29.2,39.983,32.771,38.266Z" transform="translate(-15.291 -2.27)" fill="#f05454"/>
        <path id="Path_19" data-name="Path 19" d="M48.241,32.968c-8.691-.932-11.861.574-15.192,2.173A23.934,23.934,0,0,1,21,37.947c-1.511,0-3.23-.091-5.173-.281A19.061,19.061,0,0,0,15,43.249a18.144,18.144,0,0,0,36.289,0A18.5,18.5,0,0,0,48.241,32.968ZM19.2,48.887a1.134,1.134,0,0,1-1.368-.837,20.474,20.474,0,0,1-.569-4.8,21.716,21.716,0,0,1,.132-2.394,1.134,1.134,0,1,1,2.255.251,19.345,19.345,0,0,0-.118,2.143,18.278,18.278,0,0,0,.506,4.274,1.134,1.134,0,0,1-.837,1.364Zm5.716,6.455a1.135,1.135,0,0,1-1.6.1,19.387,19.387,0,0,1-2.3-2.41,1.134,1.134,0,0,1,1.774-1.412,17.112,17.112,0,0,0,2.033,2.126,1.134,1.134,0,0,1,.1,1.6Z" transform="translate(-15 2.112)" fill="#f05454"/>
      </g>
      <path id="Path_30" data-name="Path 30" d="M138.324,474.7h25.054l.574-2.7h-26.2Z" transform="translate(113.465 137.806)" fill="#ddd"/>
      <path id="lightning_bolt_icon_143566" d="M3.283,14.434a.723.723,0,0,1-.41-.133,1.006,1.006,0,0,1-.241-1.243l2.04-5.817H3.392a.893.893,0,0,1-.748-.386A.932.932,0,0,1,2.6,5.962L4.816.8A1.334,1.334,0,0,1,5.987,0h4.477a.878.878,0,0,1,.748.386.965.965,0,0,1,.048.893L8.75,6.034h1.315a.855.855,0,0,1,.833.507,1.091,1.091,0,0,1-.41,1.183l-6.36,6.3a1.278,1.278,0,0,1-.845.41Z" transform="translate(259.1 588.013)" fill="#373737"/>
    </g>
  </g>
</svg>
