<svg xmlns="http://www.w3.org/2000/svg" width="203" height="215" viewBox="0 0 203 215">
  <g id="network" transform="translate(-1423 -1320)">
    <g id="Ellipse_12" data-name="Ellipse 12" transform="translate(1423 1320)" fill="#30475e" stroke="#707070" stroke-width="1">
      <ellipse cx="101.5" cy="107.5" rx="101.5" ry="107.5" stroke="none"/>
      <ellipse cx="101.5" cy="107.5" rx="101" ry="107" fill="none"/>
    </g>
    <g id="world-grid" transform="translate(1461.284 1362.01)">
      <path id="Path_86" data-name="Path 86" d="M113.11,54.278H102.583a1.756,1.756,0,1,0,0,3.507H113.11a9.251,9.251,0,0,1,9.466,9v66.971a9.251,9.251,0,0,1-9.466,9H13.166a9.251,9.251,0,0,1-9.466-9V121.34a1.8,1.8,0,0,0-1.85-1.754A1.8,1.8,0,0,0,0,121.34v12.414c0,6.895,5.906,12.5,13.166,12.5H50.719l-3.725,11.531h-8.2a1.756,1.756,0,1,0,0,3.507H87.484a1.756,1.756,0,1,0,0-3.507h-8.2l-3.724-11.531h37.553c7.26,0,13.166-5.609,13.166-12.5V66.782c0-6.895-5.906-12.5-13.165-12.5ZM50.863,157.788l3.725-11.531h17.1l3.724,11.531Z" transform="translate(0 -41.588)" fill="#f05454"/>
      <path id="Path_87" data-name="Path 87" d="M2.183,114.938a2,2,0,0,0,2.183-1.754v-46.4c0-4.961,5.012-9,11.173-9h6.34a1.8,1.8,0,1,0,0-3.507H15.54C6.971,54.279,0,59.888,0,66.783v46.4a2,2,0,0,0,2.183,1.754Z" transform="translate(0 -41.588)" fill="#f05454"/>
      <path id="Path_88" data-name="Path 88" d="M441.025,88.32c0-3.062-3.1-5.552-6.9-5.552h-7.77a1.8,1.8,0,1,0,0,3.507h7.77a2.334,2.334,0,0,1,2.537,2.045V122.7a2.236,2.236,0,0,0,4.366,0Z" transform="translate(-323.461 -63.416)" fill="#f05454"/>
      <path id="Path_89" data-name="Path 89" d="M138.778,148.628V130.96a1.806,1.806,0,0,0-3.611,0v17.669a2.075,2.075,0,0,1-2.1,2.046H35.633a2.075,2.075,0,0,1-2.1-2.046V88.32a2.075,2.075,0,0,1,2.1-2.045h3.4a1.754,1.754,0,1,0,0-3.507h-3.4a5.639,5.639,0,0,0-5.709,5.552v60.308a5.639,5.639,0,0,0,5.709,5.553h97.436A5.639,5.639,0,0,0,138.778,148.628Z" transform="translate(-21.213 -63.417)" fill="#f05454"/>
      <path id="Path_90" data-name="Path 90" d="M58.738,402.976a1.8,1.8,0,1,0,0,3.507h8.919a1.8,1.8,0,1,0,0-3.507Z" transform="translate(-40.092 -308.759)" fill="#f05454"/>
      <path id="Path_91" data-name="Path 91" d="M118.738,402.976a1.8,1.8,0,1,0,0,3.507h8.919a1.8,1.8,0,1,0,0-3.507Z" transform="translate(-88.316 -308.759)" fill="#f05454"/>
      <path id="Path_92" data-name="Path 92" d="M123.07,80.392a37.591,37.591,0,0,0,19.475-5.452,39.705,39.705,0,0,0,13.873-14.328,1.793,1.793,0,0,0-.594-2.4,1.652,1.652,0,0,0-2.311.617,36.592,36.592,0,0,1-7.8,9.531,45.755,45.755,0,0,0-4.313-1.752,56.884,56.884,0,0,0,5.9-24.656h11.06A37.794,37.794,0,0,1,156.534,52a1.771,1.771,0,0,0,1.055,2.225,1.631,1.631,0,0,0,.543.094,1.694,1.694,0,0,0,1.6-1.19,41.534,41.534,0,0,0,2.047-12.93c0-22.165-17.363-40.2-38.706-40.2a37.148,37.148,0,0,0-17.531,4.35A39.393,39.393,0,0,0,93.019,14.861a5.41,5.41,0,0,0-1.687-.268,5.744,5.744,0,0,0-5.625,5.843,5.94,5.94,0,0,0,1.68,4.161,41.2,41.2,0,0,0-3.023,15.6C84.364,62.36,101.727,80.392,123.07,80.392ZM87.778,41.95h11.06a56.884,56.884,0,0,0,5.9,24.656,45.758,45.758,0,0,0-4.3,1.745A37.147,37.147,0,0,1,87.778,41.95Zm15.795,28.83q1.443-.595,2.958-1.095a30.682,30.682,0,0,0,3.692,4.69A34.82,34.82,0,0,1,103.573,70.78Zm17.81,5.985c-4.169-.6-8.12-3.394-11.4-8.073a53.92,53.92,0,0,1,11.4-1.521Zm0-13.1a56.727,56.727,0,0,0-13.333,1.917c-3.551-6.459-5.6-14.752-5.836-23.63h19.169v4.808a5.915,5.915,0,0,0,0,11.15v5.755Zm3.374,13.1V67.171a53.919,53.919,0,0,1,11.4,1.521C132.876,73.371,128.926,76.169,124.757,76.765Zm17.826-5.978q-.852.587-1.737,1.124a34.445,34.445,0,0,1-4.939,2.475,30.665,30.665,0,0,0,3.7-4.7Q141.13,70.188,142.582,70.787Zm1.906-40.692a2.338,2.338,0,1,1,2.251-2.336A2.3,2.3,0,0,1,144.488,30.094Zm13.873,8.348H147.3c-.047-1.824-.167-3.64-.36-5.427a5.873,5.873,0,0,0,3.173-5.258,5.754,5.754,0,0,0-5.413-5.839,47.585,47.585,0,0,0-3.3-8.132,45.811,45.811,0,0,0,4.3-1.744A37.146,37.146,0,0,1,158.361,38.443ZM142.566,9.612q-1.443.595-2.958,1.095a31.369,31.369,0,0,0-3.075-4.02q-.316-.348-.637-.678A34.8,34.8,0,0,1,142.566,9.612ZM124.757,3.631c4.193.614,8.161,3.494,11.393,8.072a53.927,53.927,0,0,1-11.393,1.519Zm0,13.1a56.738,56.738,0,0,0,13.33-1.916,43.071,43.071,0,0,1,3.357,8.033,5.9,5.9,0,0,0-2.581,4.912,5.79,5.79,0,0,0,4.738,5.771c.171,1.618.279,3.262.324,4.914H124.757Zm0,25.22h19.169c-.238,8.878-2.285,17.171-5.836,23.63a56.739,56.739,0,0,0-13.333-1.917V57.907a5.915,5.915,0,0,0,0-11.15ZM123.07,50a2.338,2.338,0,1,1-2.251,2.336A2.3,2.3,0,0,1,123.07,50ZM121.382,3.628v9.593A53.924,53.924,0,0,1,109.964,11.7c3.224-4.587,7.191-7.46,11.419-8.068ZM107.068,7.477a34.93,34.93,0,0,1,3.222-1.5,30.54,30.54,0,0,0-3.755,4.731q-1.523-.5-2.975-1.1A34.708,34.708,0,0,1,107.068,7.477ZM91.332,18.1a2.338,2.338,0,1,1-2.251,2.336A2.3,2.3,0,0,1,91.332,18.1ZM90.4,26.2a5.432,5.432,0,0,0,.933.08,5.744,5.744,0,0,0,5.626-5.843,5.96,5.96,0,0,0-1.166-3.559,36.424,36.424,0,0,1,4.636-4.841,45.787,45.787,0,0,0,4.31,1.75,49.19,49.19,0,0,0-4.018,10.7,1.761,1.761,0,0,0,1.2,2.143,1.625,1.625,0,0,0,.432.059,1.7,1.7,0,0,0,1.63-1.306,45.361,45.361,0,0,1,4.054-10.578,56.718,56.718,0,0,0,13.347,1.921V38.443H102.213c.05-1.822.176-3.634.378-5.409a1.74,1.74,0,0,0-1.477-1.948,1.706,1.706,0,0,0-1.874,1.535c-.218,1.91-.353,3.862-.4,5.821H87.777A37.459,37.459,0,0,1,90.4,26.2Z" transform="translate(-59.806)" fill="#f05454"/>
      <path id="Path_93" data-name="Path 93" d="M81.019,298.688H71.663a1.8,1.8,0,1,0,0,3.507h9.356a1.8,1.8,0,1,0,0-3.507Z" transform="translate(-49.255 -228.853)" fill="#f05454"/>
      <path id="Path_94" data-name="Path 94" d="M69.48,335.441a2,2,0,0,0,2.183,1.754H86.832a1.8,1.8,0,1,0,0-3.507H71.663A2,2,0,0,0,69.48,335.441Z" transform="translate(-49.255 -255.67)" fill="#f05454"/>
    </g>
  </g>
</svg>
