<svg xmlns="http://www.w3.org/2000/svg" width="202" height="208" viewBox="0 0 202 208">
  <g id="web_design" transform="translate(-240 -1336)">
    <g id="Ellipse_9" data-name="Ellipse 9" transform="translate(240 1336)" fill="#30475e" stroke="#707070" stroke-width="1">
      <ellipse cx="101" cy="104" rx="101" ry="104" stroke="none"/>
      <ellipse cx="101" cy="104" rx="100.5" ry="103.5" fill="none"/>
    </g>
    <g id="computer" transform="translate(277 1334.204)">
      <path id="Path_95" data-name="Path 95" d="M112.4,56H15.2A7.209,7.209,0,0,0,8,63.2v61.2a7.209,7.209,0,0,0,7.2,7.2H52.3l-2.4,7.2H44a1.8,1.8,0,0,0-1.8,1.8v3.6H26a1.8,1.8,0,1,0,0,3.6h79.2a1.8,1.8,0,1,0,0-3.6H85.4v-3.6a1.8,1.8,0,0,0-1.8-1.8H77.7l-2.4-7.2h37.1a7.209,7.209,0,0,0,7.2-7.2V63.2a7.209,7.209,0,0,0-7.2-7.2ZM81.8,142.4v1.8h-36v-1.8Zm-28.1-3.6,2.4-7.2H71.5l2.4,7.2ZM116,124.4a3.6,3.6,0,0,1-3.6,3.6H15.2a3.6,3.6,0,0,1-3.6-3.6v-3.6H116ZM38.522,101l-.675,16.2h-2.1L35.075,101Zm-3.2-3.6,1.2-7.2h.549l1.2,7.2ZM36.8,86.6c-1.951,0-3.6-2.473-3.6-5.4,0-1.847,1.885-4.531,3.6-6.423,1.541,1.71,3.6,4.444,3.6,6.423C40.4,84.126,38.749,86.6,36.8,86.6ZM56.386,83l.211.425V84.8H49.4V83.424L49.61,83ZM51.41,79.4,53,76.224,54.586,79.4Zm5.188,9v28.574a1.857,1.857,0,0,0,.016.225H49.382a1.859,1.859,0,0,0,.016-.225V88.4Zm16.2-7.2h5.4v3.6H76.4a1.8,1.8,0,0,0,0,3.6h1.8V92H72.8a1.8,1.8,0,0,0,0,3.6h5.4v3.6H76.4a1.8,1.8,0,0,0,0,3.6h1.8v3.6H72.8a1.8,1.8,0,0,0,0,3.6h5.4v7.2H65.6V74H78.2v3.6H72.8a1.8,1.8,0,0,0,0,3.6Zm21.6,21.6v14.174a1.857,1.857,0,0,0,.016.225H87.181a1.859,1.859,0,0,0,.016-.225V102.8Zm-7.2-3.6V97.823l3.6-7.2,3.6,7.2V99.2Zm28.8,18H97.98a1.857,1.857,0,0,0,.016-.225V97.4a1.818,1.818,0,0,0-.189-.805l-5.4-10.8a1.8,1.8,0,0,0-3.222,0l-5.4,10.8a1.818,1.818,0,0,0-.189.805v19.574a1.857,1.857,0,0,0,.016.225H81.8v-45A1.8,1.8,0,0,0,80,70.4H63.8A1.8,1.8,0,0,0,62,72.2v45H60.182a1.86,1.86,0,0,0,.016-.225V83a1.818,1.818,0,0,0-.189-.805l-5.4-10.8a1.8,1.8,0,0,0-3.222,0l-5.4,10.8A1.818,1.818,0,0,0,45.8,83v33.973a1.859,1.859,0,0,0,.016.225H41.449L42.2,99.272c0-.04,0-.081,0-.124v-.054a1.8,1.8,0,0,0-.023-.189v0l-1.665-9.992A9.638,9.638,0,0,0,44,81.2c0-4.626-5.362-9.749-5.973-10.318a1.8,1.8,0,0,0-2.452,0C34.961,71.45,29.6,76.573,29.6,81.2a9.638,9.638,0,0,0,3.49,7.71L31.424,98.9v0a1.8,1.8,0,0,0-.022.189v.054c0,.043,0,.083,0,.124l.747,17.925H11.6v-54a3.6,3.6,0,0,1,3.6-3.6h97.2a3.6,3.6,0,0,1,3.6,3.6Z" fill="#f05454" stroke="#707070" stroke-width="1"/>
      <path id="Path_96" data-name="Path 96" d="M52.6,352H41.8a1.8,1.8,0,0,0,0,3.6H52.6a1.8,1.8,0,0,0,0-3.6Z" transform="translate(-24.8 -229.403)" fill="#f05454" stroke="#707070" stroke-width="1"/>
      <path id="Path_97" data-name="Path 97" d="M115.6,352h-1.8a1.8,1.8,0,0,0,0,3.6h1.8a1.8,1.8,0,0,0,0-3.6Z" transform="translate(-80.601 -229.403)" fill="#f05454" stroke="#707070" stroke-width="1"/>
      <path id="Path_98" data-name="Path 98" d="M201.8,208a1.8,1.8,0,0,0-1.8,1.8v19.8a1.8,1.8,0,1,0,3.6,0V209.8A1.8,1.8,0,0,0,201.8,208Z" transform="translate(-148.802 -117.802)" fill="#f05454" stroke="#707070" stroke-width="1"/>
      <path id="Path_99" data-name="Path 99" d="M369.8,272a1.8,1.8,0,0,0-1.8,1.8v5.4a1.8,1.8,0,1,0,3.6,0v-5.4A1.8,1.8,0,0,0,369.8,272Z" transform="translate(-279.004 -167.402)" fill="#f05454" stroke="#707070" stroke-width="1"/>
      <path id="Path_100" data-name="Path 100" d="M41.8,91.6H56.2a1.8,1.8,0,0,0,0-3.6H41.8a1.8,1.8,0,0,0,0,3.6Z" transform="translate(-24.8 -24.8)" fill="#f05454" stroke="#707070" stroke-width="1"/>
      <path id="Path_101" data-name="Path 101" d="M41.8,115.6h3.6a1.8,1.8,0,1,0,0-3.6H41.8a1.8,1.8,0,0,0,0,3.6Z" transform="translate(-24.8 -43.401)" fill="#f05454" stroke="#707070" stroke-width="1"/>
      <path id="Path_102" data-name="Path 102" d="M425.8,299.6H433a1.8,1.8,0,0,0,0-3.6h-7.2a1.8,1.8,0,1,0,0,3.6Z" transform="translate(-322.404 -186.002)" fill="#f05454" stroke="#707070" stroke-width="1"/>
      <path id="Path_103" data-name="Path 103" d="M449.8,275.6h1.8a1.8,1.8,0,1,0,0-3.6h-1.8a1.8,1.8,0,1,0,0,3.6Z" transform="translate(-341.005 -167.402)" fill="#f05454" stroke="#707070" stroke-width="1"/>
    </g>
  </g>
</svg>
