<svg xmlns="http://www.w3.org/2000/svg" width="202" height="208" viewBox="0 0 202 208">
  <g id="responsive" transform="translate(-849 -1325)">
    <g id="Ellipse_14" data-name="Ellipse 14" transform="translate(849 1325)" fill="#30475e" stroke="#707070" stroke-width="1">
      <ellipse cx="101" cy="104" rx="101" ry="104" stroke="none"/>
      <ellipse cx="101" cy="104" rx="100.5" ry="103.5" fill="none"/>
    </g>
    <g id="Group_5" data-name="Group 5">
      <g id="responsive-design" transform="translate(894.631 1380.204)">
        <path id="Path_79" data-name="Path 79" d="M107.741,23.869H90.363a3.461,3.461,0,0,0-3.476,3.443v3.9H67.773A3.461,3.461,0,0,0,64.3,34.657V73.445H3.475c-.06,0-.217-.166-.217-.229V65.871H60.822V62.428H3.259V3.443c0-.064.157,0,.217,0H97.314c.06,0,0-.064,0,0V19.968h3.259V3.443A3.282,3.282,0,0,0,97.314,0H3.475A3.461,3.461,0,0,0,0,3.443V73.216a3.665,3.665,0,0,0,3.476,3.672H39.968V88.134H33.017v3.443H67.773V88.134H60.6V76.888H64.3v3.672a3.665,3.665,0,0,0,3.476,3.672H97.315a3.488,3.488,0,0,0,3.259-3.672V67.708h7.168A3.488,3.488,0,0,0,111,64.035V27.313a3.282,3.282,0,0,0-3.259-3.443ZM57.346,88.134H43.227V76.888H57.346ZM90.363,27.313h17.378c.06,0,0-.064,0,0v3.9H90.147v-3.9C90.147,27.249,90.3,27.313,90.363,27.313Zm-.217,7.345h17.594V56.92H90.147ZM97.314,80.79H67.773a.4.4,0,0,1-.217-.229V76.888H97.314V80.56C97.314,80.624,97.375,80.79,97.314,80.79Zm0-7.345H67.556V34.657c0-.064.158,0,.217,0H86.888V64.035a3.665,3.665,0,0,0,3.476,3.672h6.951Zm10.427-9.181H90.363a.4.4,0,0,1-.217-.229V60.363h17.594v3.672C107.741,64.1,107.8,64.264,107.741,64.264Zm0,0" transform="translate(0 0)" fill="#f05454"/>
        <path id="Path_80" data-name="Path 80" d="M192.375,240.469h3.672v3.443h-3.672Zm0,0" transform="translate(-150.745 -185.385)" fill="#f05454"/>
        <path id="Path_81" data-name="Path 81" d="M224.438,240.469h3.672v3.443h-3.672Zm0,0" transform="translate(-175.87 -185.385)" fill="#f05454"/>
        <path id="Path_82" data-name="Path 82" d="M256.5,240.469h3.672v3.443H256.5Zm0,0" transform="translate(-200.994 -185.385)" fill="#f05454"/>
        <path id="Path_83" data-name="Path 83" d="M35.506,41.014V35.506h5.737V32.062H32.063v8.952Zm0,0" transform="translate(-24.718 -24.718)" fill="#f05454"/>
        <path id="Path_84" data-name="Path 84" d="M320.625,167.428h3.443v-3.672h3.9v-3.443h-7.345Zm0,0" transform="translate(-251.378 -123.59)" fill="#f05454"/>
        <path id="Path_85" data-name="Path 85" d="M424.828,160.313v7.115h3.443v-3.672h3.9v-3.443Zm0,0" transform="translate(-333.797 -123.59)" fill="#f05454"/>
      </g>
    </g>
  </g>
</svg>
